<svg width="100" height="44" viewBox="0 0 100 44" version="1.1" xmlns="http://www.w3.org/2000/svg" xmlns:xlink="http://www.w3.org/1999/xlink" xml:space="preserve" xmlns:serif="http://www.serif.com/" style="fill-rule:evenodd;clip-rule:evenodd;stroke-linejoin:round;stroke-miterlimit:1.41421;">
            <g transform="matrix(1,0,0,1,1.25,-27.0088)">
                <path d="M9.78,35.52L10.185,42.855C10.185,44.385 9.96,45.6 9.51,46.5C9.06,47.4 8.295,48.075 7.215,48.525C8.355,48.915 9.135,49.508 9.555,50.302C9.975,51.097 10.185,52.32 10.185,53.97L9.69,61.89C9.69,63.06 9.832,63.915 10.117,64.455C10.403,64.995 10.92,65.265 11.67,65.265C12.42,65.265 13.095,65.19 13.695,65.04L14.145,68.46C12.885,68.73 11.7,68.865 10.59,68.865C8.76,68.865 7.343,68.355 6.337,67.335C5.332,66.315 4.83,64.92 4.83,63.15L5.325,54.555C5.325,53.295 5.152,52.29 4.807,51.54C4.463,50.79 3.69,50.34 2.49,50.19L2.49,46.86C3.72,46.71 4.508,46.275 4.852,45.555C5.197,44.835 5.37,43.725 5.37,42.225L5.01,34.62C5.01,32.79 5.49,31.365 6.45,30.345C7.41,29.325 8.82,28.815 10.68,28.815C11.88,28.815 13.08,28.965 14.28,29.265L13.83,32.595C12.99,32.445 12.39,32.37 12.03,32.37C11.1,32.37 10.493,32.602 10.207,33.067C9.922,33.533 9.78,34.35 9.78,35.52Z" style="fill:#e6c341;fill-rule:nonzero;"></path>
            </g>
            <g transform="matrix(1,0,0,1,1.25,-27.0088)">
                <path d="M20.175,56.13L20.175,42.315L16.305,42.315L16.305,38.535L20.175,38.535L20.175,36.825C20.175,33.885 20.85,31.77 22.2,30.48C23.46,29.25 25.305,28.635 27.735,28.635C30.165,28.635 32.325,29.16 34.215,30.21L32.91,33.81C31.47,33.06 30.12,32.685 28.86,32.685C27.6,32.685 26.73,32.993 26.25,33.607C25.77,34.222 25.53,35.16 25.53,36.42L25.53,38.535L32.19,38.535L32.19,42.315L25.53,42.315L25.53,57.39L29.31,57.57L29.31,61.17L17.385,61.17L17.385,57.75L18.87,57.615C19.32,57.555 19.65,57.428 19.86,57.232C20.07,57.037 20.175,56.67 20.175,56.13Z" style="fill:#e6c341;fill-rule:nonzero;"></path>
            </g>
            <g transform="matrix(1,0,0,1,1.25,-27.0088)">
                <path d="M46.86,56.4L44.115,52.8L40.38,57.435L42.495,57.57L42.495,61.17L33.135,61.17L33.135,57.615L34.53,57.48C35.22,57.39 35.82,57.03 36.33,56.4L41.505,49.92L35.97,42.27L33.675,42L33.675,38.535L44.16,38.535L44.16,42.09L42.855,42.18C42.495,42.21 42.263,42.345 42.158,42.585C42.052,42.825 42.105,43.08 42.315,43.35L44.88,46.77L48.345,42.27L46.5,42.135L46.5,38.535L55.635,38.535L55.635,42.045L54.285,42.135C53.655,42.165 53.055,42.54 52.485,43.26L47.535,49.515L53.43,57.345L55.725,57.615L55.725,61.17L45.015,61.17L45.015,57.615L46.41,57.525C46.8,57.495 47.033,57.367 47.107,57.142C47.182,56.918 47.1,56.67 46.86,56.4Z" style="fill:#e6c341;fill-rule:nonzero;"></path>
            </g>
            <g transform="matrix(1,0,0,1,1.25,-27.0088)">
                <path d="M71.7,38.535L81.195,38.535L81.195,42.045L79.8,42.135C79.2,42.195 78.795,42.555 78.585,43.215L72.78,61.17L65.895,61.17L59.595,43.26C59.445,42.84 59.287,42.555 59.122,42.405C58.958,42.255 58.68,42.165 58.29,42.135L56.985,42.045L56.985,38.535L67.56,38.535L67.56,42.135L64.815,42.27L69.45,57.075L69.54,57.075L74.04,42.27L71.7,42.135L71.7,38.535Z" style="fill:#e6c341;fill-rule:nonzero;"></path>
            </g>
            <g transform="matrix(1,0,0,1,1.25,-27.0088)">
                <path d="M87.81,61.89L87.315,53.97C87.315,52.32 87.525,51.097 87.945,50.302C88.365,49.508 89.145,48.915 90.285,48.525C89.205,48.075 88.44,47.4 87.99,46.5C87.54,45.6 87.315,44.385 87.315,42.855L87.72,35.52C87.72,34.35 87.578,33.533 87.293,33.067C87.007,32.602 86.4,32.37 85.47,32.37C85.11,32.37 84.51,32.445 83.67,32.595L83.22,29.265C84.42,28.965 85.62,28.815 86.82,28.815C88.68,28.815 90.09,29.325 91.05,30.345C92.01,31.365 92.49,32.79 92.49,34.62L92.13,42.225C92.13,43.725 92.303,44.835 92.648,45.555C92.992,46.275 93.78,46.71 95.01,46.86L95.01,50.19C93.81,50.34 93.037,50.79 92.693,51.54C92.348,52.29 92.175,53.295 92.175,54.555L92.67,63.15C92.67,64.92 92.168,66.315 91.163,67.335C90.157,68.355 88.74,68.865 86.91,68.865C85.8,68.865 84.615,68.73 83.355,68.46L83.805,65.04C84.405,65.19 85.08,65.265 85.83,65.265C86.58,65.265 87.097,64.995 87.383,64.455C87.668,63.915 87.81,63.06 87.81,61.89Z" style="fill:#e6c341;fill-rule:nonzero;"></path>
            </g>
</svg>